<svg width="278" height="30" viewBox="0 0 278 30" fill="none" xmlns="http://www.w3.org/2000/svg">
<g clip-path="url(#clip0_652_44)">
<path d="M40.2536 20.0391L40.272 15.0994H40.8629L45.2209 9.81818H49.9297L43.8821 16.9922H42.8665L40.2536 20.0391ZM36.5234 24V5.09091H40.6506V24H36.5234ZM45.3686 24L41.3523 17.9155L44.0852 14.9979L50.179 24H45.3686ZM63.8487 9.81818L58.9183 24H54.2465L49.3253 9.81818H53.6833L56.5085 19.8359H56.6563L59.4908 9.81818H63.8487ZM73.1213 14.6562V17.897H64.4516V14.6562H73.1213ZM86.8488 13.9545L83.0725 14.1392C83.0109 13.8376 82.8817 13.5668 82.6847 13.3267C82.4877 13.0805 82.2261 12.8866 81.8999 12.745C81.5798 12.5973 81.2013 12.5234 80.7642 12.5234C80.1856 12.5234 79.6963 12.6435 79.2962 12.8835C78.8961 13.1236 78.6961 13.4437 78.6961 13.8438C78.6961 14.1638 78.8222 14.4377 79.0746 14.6655C79.3331 14.8871 79.7825 15.0656 80.4226 15.201L83.0448 15.718C84.4359 15.995 85.47 16.4474 86.1471 17.0753C86.8303 17.7031 87.175 18.531 87.1812 19.5589C87.175 20.5007 86.8949 21.3255 86.341 22.0334C85.7931 22.7412 85.0391 23.2921 84.0789 23.6861C83.1187 24.0739 82.0199 24.2678 80.7827 24.2678C78.8561 24.2678 77.3265 23.8677 76.1939 23.0675C75.0614 22.2673 74.4058 21.1839 74.2273 19.8175L78.2898 19.642C78.4006 20.196 78.6745 20.6177 79.1115 20.907C79.5486 21.1963 80.1087 21.3409 80.7919 21.3409C81.4444 21.3409 81.9707 21.2147 82.3708 20.9624C82.777 20.71 82.9802 20.3838 82.9802 19.9837C82.9802 19.639 82.8355 19.3589 82.5462 19.1435C82.2569 18.9219 81.8076 18.7526 81.1982 18.6357L78.733 18.1555C77.3357 17.8847 76.2955 17.4046 75.6123 16.7152C74.9352 16.0258 74.5966 15.1456 74.5966 14.0746C74.5966 13.1513 74.8459 12.3603 75.3445 11.7017C75.8492 11.0369 76.5571 10.526 77.4681 10.169C78.3852 9.81203 79.4593 9.63352 80.6904 9.63352C82.5247 9.63352 83.9712 10.0213 85.0299 10.7969C86.0886 11.5663 86.6949 12.6188 86.8488 13.9545ZM94.5402 24.2678C93.0752 24.2678 91.8134 23.9754 90.7547 23.3906C89.696 22.7997 88.8804 21.9595 88.3079 20.87C87.7417 19.7744 87.4585 18.4756 87.4585 16.9737C87.4585 15.5088 87.7447 14.2285 88.3172 13.1328C88.8896 12.031 89.6929 11.1723 90.727 10.5568C91.7672 9.94129 92.9891 9.63352 94.3925 9.63352C95.3527 9.63352 96.2421 9.78741 97.0608 10.0952C97.8794 10.3968 98.5904 10.8492 99.1936 11.4524C99.803 12.0556 100.277 12.8097 100.615 13.7145C100.954 14.6132 101.123 15.6565 101.123 16.8445V17.9432H89.0373V15.4411H97.2547C97.2547 14.9055 97.1346 14.4316 96.8946 14.0192C96.6545 13.6006 96.3252 13.2713 95.9067 13.0312C95.4881 12.7912 95.008 12.6712 94.4663 12.6712C93.9 12.6712 93.3953 12.8035 92.9521 13.0682C92.5151 13.3267 92.1704 13.6714 91.918 14.1023C91.6718 14.5331 91.5426 15.0163 91.5302 15.5518V17.9893C91.5302 18.6541 91.6564 19.2296 91.9088 19.7159C92.1612 20.196 92.5151 20.5684 92.9706 20.8331C93.4322 21.0978 93.9801 21.2301 94.6141 21.2301C95.0388 21.2301 95.4235 21.1716 95.7682 21.0547C96.119 20.9316 96.4206 20.7531 96.673 20.5192C96.9254 20.2853 97.1162 19.996 97.2454 19.6513L101.049 19.8544C100.871 20.7469 100.495 21.5256 99.923 22.1903C99.3506 22.849 98.6088 23.3598 97.6979 23.723C96.7869 24.0862 95.7343 24.2678 94.5402 24.2678ZM102.052 24V9.81818H106.059V12.3295H106.206C106.465 11.4309 106.893 10.7569 107.49 10.3075C108.093 9.85204 108.789 9.62429 109.576 9.62429C109.78 9.62429 109.992 9.6366 110.213 9.66122C110.441 9.68584 110.644 9.7197 110.823 9.76278V13.4006C110.626 13.339 110.361 13.2867 110.029 13.2436C109.696 13.2005 109.395 13.179 109.124 13.179C108.558 13.179 108.053 13.3021 107.61 13.5483C107.167 13.7945 106.816 14.1361 106.557 14.5732C106.305 15.004 106.179 15.5088 106.179 16.0874V24H102.052ZM125.06 9.81818L120.13 24H115.458L110.537 9.81818H114.895L117.72 19.8359H117.868L120.702 9.81818H125.06ZM131.475 24.2678C130.01 24.2678 128.749 23.9754 127.69 23.3906C126.631 22.7997 125.816 21.9595 125.243 20.87C124.677 19.7744 124.394 18.4756 124.394 16.9737C124.394 15.5088 124.68 14.2285 125.252 13.1328C125.825 12.031 126.628 11.1723 127.662 10.5568C128.702 9.94129 129.924 9.63352 131.328 9.63352C132.288 9.63352 133.177 9.78741 133.996 10.0952C134.815 10.3968 135.526 10.8492 136.129 11.4524C136.738 12.0556 137.212 12.8097 137.551 13.7145C137.889 14.6132 138.059 15.6565 138.059 16.8445V17.9432H125.973V15.4411H134.19C134.19 14.9055 134.07 14.4316 133.83 14.0192C133.59 13.6006 133.26 13.2713 132.842 13.0312C132.423 12.7912 131.943 12.6712 131.402 12.6712C130.835 12.6712 130.331 12.8035 129.887 13.0682C129.45 13.3267 129.106 13.6714 128.853 14.1023C128.607 14.5331 128.478 15.0163 128.465 15.5518V17.9893C128.465 18.6541 128.592 19.2296 128.844 19.7159C129.096 20.196 129.45 20.5684 129.906 20.8331C130.367 21.0978 130.915 21.2301 131.549 21.2301C131.974 21.2301 132.359 21.1716 132.703 21.0547C133.054 20.9316 133.356 20.7531 133.608 20.5192C133.861 20.2853 134.051 19.996 134.181 19.6513L137.985 19.8544C137.806 20.7469 137.431 21.5256 136.858 22.1903C136.286 22.849 135.544 23.3598 134.633 23.723C133.722 24.0862 132.67 24.2678 131.475 24.2678ZM138.987 24V9.81818H142.994V12.3295H143.142C143.4 11.4309 143.828 10.7569 144.425 10.3075C145.028 9.85204 145.724 9.62429 146.512 9.62429C146.715 9.62429 146.927 9.6366 147.149 9.66122C147.376 9.68584 147.58 9.7197 147.758 9.76278V13.4006C147.561 13.339 147.296 13.2867 146.964 13.2436C146.632 13.2005 146.33 13.179 146.059 13.179C145.493 13.179 144.988 13.3021 144.545 13.5483C144.102 13.7945 143.751 14.1361 143.492 14.5732C143.24 15.004 143.114 15.5088 143.114 16.0874V24H138.987Z" fill="#130E0F"/>
<path d="M167.972 24V12.3636H170.506V16.75H170.574C170.684 16.5038 170.841 16.2595 171.045 16.017C171.25 15.7708 171.515 15.5663 171.841 15.4034C172.17 15.2405 172.574 15.1591 173.051 15.1591C173.68 15.1591 174.261 15.3239 174.795 15.6534C175.33 15.9792 175.758 16.4735 176.08 17.1364C176.405 17.7992 176.568 18.6345 176.568 19.642C176.568 20.6231 176.411 21.447 176.097 22.1136C175.786 22.7803 175.364 23.2841 174.83 23.625C174.295 23.9659 173.701 24.1364 173.045 24.1364C172.587 24.1364 172.195 24.0606 171.869 23.9091C171.544 23.7576 171.275 23.5644 171.062 23.3295C170.85 23.0909 170.688 22.8466 170.574 22.5966H170.477V24H167.972ZM170.455 19.6364C170.455 20.1402 170.523 20.5795 170.659 20.9545C170.799 21.3258 171 21.6155 171.261 21.8239C171.523 22.0284 171.839 22.1307 172.21 22.1307C172.589 22.1307 172.909 22.0265 173.17 21.8182C173.432 21.6061 173.631 21.3144 173.767 20.9432C173.903 20.5682 173.972 20.1326 173.972 19.6364C173.972 19.1439 173.903 18.7121 173.767 18.3409C173.634 17.9697 173.438 17.6818 173.176 17.4773C172.915 17.2689 172.593 17.1648 172.21 17.1648C171.839 17.1648 171.523 17.267 171.261 17.4716C171 17.6723 170.799 17.9583 170.659 18.3295C170.523 18.697 170.455 19.1326 170.455 19.6364ZM178.446 27.2727C178.132 27.2727 177.836 27.2481 177.56 27.1989C177.283 27.1496 177.05 27.089 176.861 27.017L177.429 25.1364C177.71 25.2235 177.963 25.2727 178.191 25.2841C178.418 25.2955 178.615 25.2481 178.781 25.142C178.948 25.0398 179.081 24.8617 179.179 24.608L179.31 24.2727L176.191 15.2727H178.855L180.6 21.6193H180.691L182.446 15.2727H185.128L181.77 24.9091C181.607 25.3788 181.384 25.7917 181.1 26.1477C180.819 26.5038 180.461 26.7803 180.026 26.9773C179.594 27.1742 179.067 27.2727 178.446 27.2727Z" fill="#7515EF"/>
<path d="M192.749 15.2727V17.1648H187.408V15.2727H192.749ZM188.59 13.1818H191.124V21.2955C191.124 21.5038 191.156 21.6667 191.221 21.7841C191.289 21.8977 191.38 21.9792 191.494 22.0284C191.611 22.0739 191.749 22.0966 191.908 22.0966C192.018 22.0966 192.132 22.0871 192.249 22.0682C192.367 22.0455 192.454 22.0284 192.511 22.017L192.908 23.8864C192.783 23.9242 192.607 23.9697 192.38 24.0227C192.153 24.0758 191.878 24.108 191.556 24.1193C190.95 24.1458 190.424 24.0701 189.977 23.892C189.533 23.7102 189.189 23.4299 188.942 23.0511C188.7 22.6686 188.583 22.1894 188.59 21.6136V13.1818ZM197.218 24.1648C196.317 24.1648 195.54 23.9848 194.889 23.625C194.237 23.2614 193.735 22.7443 193.383 22.0739C193.035 21.3996 192.86 20.6004 192.86 19.6761C192.86 18.7746 193.036 17.9867 193.389 17.3125C193.741 16.6345 194.235 16.1061 194.872 15.7273C195.512 15.3485 196.264 15.1591 197.127 15.1591C197.718 15.1591 198.266 15.2538 198.769 15.4432C199.273 15.6288 199.711 15.9072 200.082 16.2784C200.457 16.6496 200.749 17.1136 200.957 17.6705C201.165 18.2235 201.269 18.8655 201.269 19.5966V20.2727H193.832V18.733H198.889C198.889 18.4034 198.815 18.1117 198.667 17.858C198.519 17.6004 198.317 17.3977 198.059 17.25C197.802 17.1023 197.506 17.0284 197.173 17.0284C196.824 17.0284 196.514 17.1098 196.241 17.2727C195.972 17.4318 195.76 17.6439 195.605 17.9091C195.453 18.1742 195.374 18.4716 195.366 18.8011V20.3011C195.366 20.7102 195.444 21.0644 195.599 21.3636C195.754 21.6591 195.972 21.8883 196.252 22.0511C196.536 22.214 196.874 22.2955 197.264 22.2955C197.525 22.2955 197.762 22.2595 197.974 22.1875C198.19 22.1117 198.375 22.0019 198.531 21.858C198.686 21.714 198.803 21.536 198.883 21.3239L201.224 21.4489C201.114 21.9981 200.883 22.4773 200.531 22.8864C200.178 23.2917 199.722 23.6061 199.161 23.8295C198.601 24.053 197.953 24.1648 197.218 24.1648ZM205.829 24.1648C204.924 24.1648 204.147 23.9754 203.5 23.5966C202.856 23.2178 202.36 22.6894 202.011 22.0114C201.666 21.3333 201.494 20.5511 201.494 19.6648C201.494 18.7746 201.668 17.9905 202.017 17.3125C202.365 16.6345 202.861 16.1061 203.505 15.7273C204.153 15.3485 204.924 15.1591 205.818 15.1591C206.594 15.1591 207.272 15.3011 207.852 15.5852C208.435 15.8655 208.894 16.2614 209.227 16.7727C209.564 17.2841 209.746 17.8826 209.772 18.5682H207.386C207.325 18.1288 207.163 17.7784 206.897 17.517C206.632 17.2519 206.286 17.1193 205.858 17.1193C205.502 17.1193 205.189 17.2178 204.92 17.4148C204.655 17.608 204.447 17.892 204.295 18.267C204.147 18.642 204.074 19.0985 204.074 19.6364C204.074 20.178 204.147 20.6383 204.295 21.017C204.443 21.3958 204.649 21.6837 204.914 21.8807C205.183 22.0777 205.498 22.1761 205.858 22.1761C206.127 22.1761 206.367 22.1193 206.579 22.0057C206.795 21.892 206.973 21.7273 207.113 21.5114C207.254 21.2955 207.344 21.0341 207.386 20.7273H209.772C209.742 21.4129 209.562 22.0152 209.233 22.5341C208.907 23.0492 208.454 23.4508 207.875 23.7386C207.299 24.0227 206.617 24.1648 205.829 24.1648ZM212.874 18.9773V24H210.334V12.3636H212.8V16.8352H212.896C213.097 16.3125 213.417 15.9034 213.856 15.608C214.3 15.3087 214.851 15.1591 215.51 15.1591C216.12 15.1591 216.65 15.2917 217.101 15.5568C217.555 15.822 217.908 16.2008 218.158 16.6932C218.411 17.1818 218.536 17.7633 218.533 18.4375V24H215.993V18.9091C215.997 18.3902 215.866 17.9848 215.601 17.6932C215.336 17.4015 214.964 17.2557 214.487 17.2557C214.173 17.2557 213.892 17.3239 213.646 17.4602C213.404 17.5966 213.214 17.7936 213.078 18.0511C212.945 18.3087 212.877 18.6174 212.874 18.9773ZM220.671 27.2727C220.356 27.2727 220.061 27.2481 219.784 27.1989C219.508 27.1496 219.275 27.089 219.085 27.017L219.654 25.1364C219.934 25.2235 220.188 25.2727 220.415 25.2841C220.642 25.2955 220.839 25.2481 221.006 25.142C221.173 25.0398 221.305 24.8617 221.404 24.608L221.534 24.2727L218.415 15.2727H221.08L222.824 21.6193H222.915L224.671 15.2727H227.352L223.994 24.9091C223.832 25.3788 223.608 25.7917 223.324 26.1477C223.044 26.5038 222.686 26.7803 222.25 26.9773C221.818 27.1742 221.292 27.2727 220.671 27.2727ZM231.266 27.4545C230.467 27.4545 229.781 27.3447 229.209 27.125C228.641 26.9053 228.19 26.6061 227.857 26.2273C227.527 25.8485 227.319 25.4223 227.232 24.9489L229.601 24.6989C229.662 24.8731 229.762 25.0322 229.902 25.1761C230.046 25.3239 230.236 25.4394 230.471 25.5227C230.709 25.6098 230.995 25.6534 231.329 25.6534C231.832 25.6534 232.249 25.5303 232.579 25.2841C232.912 25.0379 233.079 24.6231 233.079 24.0398V22.4602H232.982C232.872 22.7102 232.709 22.9432 232.493 23.1591C232.277 23.375 232.003 23.5492 231.669 23.6818C231.34 23.8144 230.948 23.8807 230.493 23.8807C229.846 23.8807 229.255 23.7292 228.721 23.4261C228.186 23.1231 227.76 22.6572 227.442 22.0284C227.128 21.3996 226.971 20.5966 226.971 19.6193C226.971 18.6193 227.132 17.7898 227.454 17.1307C227.779 16.4678 228.209 15.9735 228.743 15.6477C229.277 15.322 229.859 15.1591 230.488 15.1591C230.965 15.1591 231.368 15.2405 231.698 15.4034C232.027 15.5663 232.294 15.7708 232.499 16.017C232.707 16.2595 232.865 16.5038 232.971 16.75H233.061V15.2727H235.584V24.0682C235.584 24.8106 235.4 25.4318 235.033 25.9318C234.669 26.4356 234.162 26.8144 233.51 27.0682C232.863 27.3258 232.115 27.4545 231.266 27.4545ZM231.329 21.9943C231.7 21.9943 232.016 21.8996 232.277 21.7102C232.539 21.5208 232.738 21.2481 232.874 20.892C233.014 20.536 233.084 20.1098 233.084 19.6136C233.084 19.1174 233.016 18.6856 232.88 18.3182C232.743 17.9508 232.544 17.6667 232.283 17.4659C232.022 17.2652 231.704 17.1648 231.329 17.1648C230.946 17.1648 230.624 17.2689 230.363 17.4773C230.105 17.6818 229.908 17.9678 229.772 18.3352C229.635 18.7027 229.567 19.1288 229.567 19.6136C229.567 20.1023 229.635 20.5246 229.772 20.8807C229.908 21.2367 230.107 21.5114 230.368 21.7045C230.63 21.8977 230.95 21.9943 231.329 21.9943ZM236.501 24V15.2727H238.967V16.8182H239.057C239.217 16.2652 239.48 15.8504 239.847 15.5739C240.218 15.2936 240.646 15.1534 241.131 15.1534C241.256 15.1534 241.387 15.161 241.523 15.1761C241.664 15.1913 241.789 15.2121 241.898 15.2386V17.4773C241.777 17.4394 241.614 17.4072 241.41 17.3807C241.205 17.3542 241.02 17.3409 240.853 17.3409C240.504 17.3409 240.194 17.4167 239.921 17.5682C239.648 17.7197 239.432 17.9299 239.273 18.1989C239.118 18.464 239.04 18.7746 239.04 19.1307V24H236.501ZM242.15 24V15.2727H244.616V16.8182H244.707C244.866 16.2652 245.129 15.8504 245.497 15.5739C245.868 15.2936 246.296 15.1534 246.781 15.1534C246.906 15.1534 247.036 15.161 247.173 15.1761C247.313 15.1913 247.438 15.2121 247.548 15.2386V17.4773C247.427 17.4394 247.264 17.4072 247.059 17.3807C246.855 17.3542 246.669 17.3409 246.502 17.3409C246.154 17.3409 245.843 17.4167 245.57 17.5682C245.298 17.7197 245.082 17.9299 244.923 18.1989C244.767 18.464 244.69 18.7746 244.69 19.1307V24H242.15ZM247.799 24V15.2727H250.265V16.8182H250.356C250.515 16.2652 250.779 15.8504 251.146 15.5739C251.517 15.2936 251.945 15.1534 252.43 15.1534C252.555 15.1534 252.686 15.161 252.822 15.1761C252.962 15.1913 253.087 15.2121 253.197 15.2386V17.4773C253.076 17.4394 252.913 17.4072 252.708 17.3807C252.504 17.3542 252.318 17.3409 252.152 17.3409C251.803 17.3409 251.493 17.4167 251.22 17.5682C250.947 17.7197 250.731 17.9299 250.572 18.1989C250.417 18.464 250.339 18.7746 250.339 19.1307V24H247.799ZM255.989 12.3636V24H253.449V12.3636H255.989Z" fill="#EF15BF"/>
<g clip-path="url(#clip1_652_44)">
<path d="M30 15C30 23.2843 23.2843 30 15 30C6.71573 30 0 23.2843 0 15C0 6.71573 6.71573 0 15 0C23.2843 0 30 6.71573 30 15Z" fill="url(#paint0_linear_652_44)"/>
<path d="M24.0406 11.8362L20.8548 20.9998H17.8361L14.6562 11.8362H17.4722L19.2977 18.3092H19.3932L21.2247 11.8362H24.0406Z" fill="white"/>
<path d="M8.79304 18.4405L8.80497 15.2488H9.18679L12.0027 11.8363H15.0453L11.1376 16.4718H10.4814L8.79304 18.4405ZM6.38281 20.9999V8.78174H9.04957V20.9999H6.38281ZM12.0982 20.9999L9.50298 17.0684L11.2689 15.1832L15.2064 20.9999H12.0982Z" fill="white"/>
</g>
</g>
<defs>
<linearGradient id="paint0_linear_652_44" x1="15" y1="0" x2="15" y2="30" gradientUnits="userSpaceOnUse">
<stop stop-color="#EF15BF"/>
<stop offset="1" stop-color="#7515EF"/>
</linearGradient>
<clipPath id="clip0_652_44">
<rect width="278" height="30" fill="white"/>
</clipPath>
<clipPath id="clip1_652_44">
<rect width="30" height="30" fill="white"/>
</clipPath>
</defs>
</svg>
